<?xml version="1.0" encoding="UTF-8" standalone="no"?>
<!-- Created with Inkscape (http://www.inkscape.org/) -->

<svg
   width="175.60001mm"
   height="186.3mm"
   viewBox="0 0 175.60001 186.3"
   version="1.1"
   id="svg1"
   xml:space="preserve"
   xmlns:xlink="http://www.w3.org/1999/xlink"
   xmlns="http://www.w3.org/2000/svg"
   xmlns:svg="http://www.w3.org/2000/svg"><defs
     id="defs1"><linearGradient
       id="linearGradient1"><stop
         style="stop-color:#79eb93;stop-opacity:1;"
         offset="0"
         id="stop1" /><stop
         style="stop-color:#d6ffad;stop-opacity:1;"
         offset="1"
         id="stop2" /></linearGradient><linearGradient
       xlink:href="#linearGradient1"
       id="linearGradient2"
       x1="20.046524"
       y1="147.8192"
       x2="195.55731"
       y2="147.8192"
       gradientUnits="userSpaceOnUse"
       gradientTransform="translate(-20.046242,-54.674917)" /></defs><g
     id="layer1"><path
       style="fill:url(#linearGradient2)"
       d="M 2.8205135e-4,93.14428 V 9.5550135e-4 L 45.177884,0.0918855 c 44.814134,0.0902 45.210024,0.09559 49.207924,0.66949107 C 105.7708,2.3957115 115.61382,5.5094905 125.0159,10.451018 c 26.10977,13.722715 43.86426,37.285535 49.05898,65.108462 1.02994,5.51635 1.41232,10.02746 1.43535,16.93334 0.0127,3.82377 -0.12045,7.84254 -0.31569,9.525 -2.603,22.42997 -11.47276,41.44724 -26.22912,56.23671 -12.3666,12.39435 -27.26029,20.96785 -43.79327,25.20944 -8.074482,2.07153 -13.889752,2.82127 -21.894272,2.82273 l -4.96093,9e-4 v -11.1125 c 0,-6.11187 -10e-4,-11.20179 -0.002,-11.31093 -0.001,-0.10914 2.409789,-0.27675 5.35782,-0.37246 18.903522,-0.61373 36.781722,-8.33971 49.056292,-21.19942 2.37613,-2.48942 6.79808,-8.16556 8.59904,-11.03802 4.04414,-6.4502 7.59562,-15.4208 9.06081,-22.88645 2.1715,-11.06462 1.79796,-23.14074 -1.05146,-33.99194 -3.00234,-11.43358 -9.9996,-23.304977 -18.58622,-31.533031 -8.70551,-8.341961 -19.82378,-14.563515 -31.319322,-17.525652 -8.52339,-2.19628 -10.13757,-2.27703 -45.522534,-2.277286 l -30.62552,-2.21e-4 v 70.41504 70.41504 l 9.061979,-0.13793 9.061979,-0.13793 0.0667,-61.67815 0.0667,-61.678154 16.337462,-0.06615 c 29.034064,-0.117551 28.518474,-0.138527 34.947644,1.421824 15.446452,3.748833 27.427502,13.085193 34.929692,27.21932 8.73915,16.46456 7.63602,37.63558 -2.77183,53.19631 -8.49861,12.70624 -19.92927,20.51904 -34.366392,23.48925 -4.35134,0.89523 -7.79173,1.13603 -16.949602,1.18635 l -8.712467,0.0479 -0.06783,19.7776 -0.06783,19.7776 H 32.410054 2.8205135e-4 Z M 83.211738,123.55379 c 7.26088,-0.88628 12.76002,-3.46753 17.949532,-8.42536 6.64859,-6.35177 9.74363,-14.05115 9.35391,-23.26933 -0.34207,-8.09139 -3.07199,-14.10186 -9.15157,-20.14903 -4.094502,-4.07266 -7.920422,-6.25863 -13.591492,-7.76559 -3.81225,-1.01302 -5.56477,-1.17793 -14.41611,-1.35652 l -8.268229,-0.16683 v 30.7124 30.71241 l 7.871354,-7.5e-4 c 4.329244,-4.1e-4 8.942914,-0.13154 10.252605,-0.2914 z"
       id="path1" /></g></svg>
